<?xml version="1.0" encoding="utf-8"?>
<!-- Generator: Adobe Illustrator 25.0.1, SVG Export Plug-In . SVG Version: 6.00 Build 0)  -->
<svg version="1.1" id="Layer_1" xmlns="http://www.w3.org/2000/svg" xmlns:xlink="http://www.w3.org/1999/xlink" x="0px" y="0px"
	 viewBox="0 0 513 512" style="enable-background:new 0 0 513 512;" xml:space="preserve">
<style type="text/css">
	.st0{fill:#AD2831;}
</style>
<path class="st0" d="M484.1,227.6h-21.5c-50.7,0-76.1-61.3-40.2-97.1l15.2-15.2c10.7-11.5,10.1-29.5-1.4-40.2
	c-10.9-10.2-27.9-10.2-38.8,0l-15.2,15.2C346.2,126.1,285,100.7,285,50V28.4C285,12.7,272.2,0,256.5,0c-15.7,0-28.4,12.7-28.4,28.4
	V50c0,50.7-61.3,76.1-97.1,40.2L115.7,75c-11.5-10.7-29.5-10.1-40.2,1.4c-10.2,10.9-10.2,27.8,0,38.8l15.2,15.2
	c35.8,35.8,10.4,97.1-40.2,97.1H29c-15.7-0.3-28.7,12.2-29,27.9s12.2,28.7,27.9,29h22.6c50.7,0,76.1,61.3,40.2,97.1l-15.2,15.2
	c-10.6,11.6-9.9,29.6,1.7,40.2c10.9,10,27.6,10,38.5,0l15.2-15.2c35.8-35.8,97.1-10.5,97.1,40.2v21.5c0,15.7,12.7,28.5,28.4,28.5
	c15.7,0,28.5-12.7,28.5-28.5V462c0-50.7,61.3-76.1,97.1-40.2l15.2,15.2c11.6,10.6,29.6,9.9,40.2-1.7c10-10.9,10-27.6,0-38.5
	l-15.2-15.2c-35.8-35.8-10.5-97.1,40.2-97.1h21.5c15.7,0.3,28.7-12.2,29-27.9s-12.2-28.7-27.9-29
	C484.8,227.6,484.4,227.6,484.1,227.6L484.1,227.6z M224.5,272c-26.5,0-48-21.5-48-48s21.5-48,48-48s48,21.5,48,48
	S251,272,224.5,272z M304.5,328c-13.3,0-24-10.7-24-24s10.7-24,24-24s24,10.7,24,24S317.8,328,304.5,328z"/>
</svg>
